<svg xmlns="http://www.w3.org/2000/svg" viewBox="0 0 900 560" width="900" height="560">
  <rect width="900" height="560" fill="#0A0A0A"/>

  <!-- ═══ VERSIONE 1: Logo orizzontale su scuro ═══ -->
  <text x="40" y="36" font-family="monospace" font-size="11" fill="#6B6B6B" letter-spacing="2">VERSIONE PRINCIPALE — su sfondo scuro</text>

  <!-- Icona -->
  <rect x="40" y="50" width="72" height="72" rx="12" fill="none" stroke="#1B6EF3" stroke-width="2"/>
  <rect x="40" y="50" width="72" height="72" rx="12" fill="#1B6EF3" fill-opacity="0.08"/>
  <rect x="54" y="66" width="40" height="9" rx="3" fill="#FFFFFF"/>
  <rect x="54" y="81" width="28" height="8" rx="3" fill="#1B6EF3"/>
  <rect x="54" y="94" width="40" height="9" rx="3" fill="#FFFFFF"/>
  <circle cx="103" cy="113" r="5" fill="#1B6EF3"/>

  <!-- Testo -->
  <text x="128" y="95" font-family="Inter,Arial,sans-serif" font-size="42" font-weight="900" fill="#FFFFFF" letter-spacing="-2">Emme</text>
  <text x="280" y="95" font-family="Inter,Arial,sans-serif" font-size="42" font-weight="900" fill="#1B6EF3" letter-spacing="-2">2000</text>
  <line x1="128" y1="103" x2="440" y2="103" stroke="#2E2E2E" stroke-width="1"/>
  <text x="129" y="118" font-family="monospace" font-size="10" fill="#6B6B6B" letter-spacing="3">SPECIALISTI IN SISTEMI DI SICUREZZA</text>
  <text x="129" y="133" font-family="monospace" font-size="9" fill="#1B6EF3" letter-spacing="2" font-style="italic">Your Security, our Mission</text>

  <!-- Slogan sotto -->
  <line x1="40" y1="155" x2="450" y2="155" stroke="#1A1A1A" stroke-width="1"/>

  <!-- ═══ VERSIONE 2: Logo orizzontale su chiaro ═══ -->
  <rect x="460" y="40" width="420" height="130" rx="10" fill="#F5F5F5"/>
  <text x="480" y="62" font-family="monospace" font-size="11" fill="#999999" letter-spacing="2">VERSIONE SU SFONDO CHIARO</text>

  <rect x="480" y="70" width="64" height="64" rx="10" fill="none" stroke="#1B6EF3" stroke-width="2"/>
  <rect x="480" y="70" width="64" height="64" rx="10" fill="#1B6EF3" fill-opacity="0.06"/>
  <rect x="492" y="84" width="36" height="8" rx="2.5" fill="#111111"/>
  <rect x="492" y="97" width="25" height="7" rx="2.5" fill="#1B6EF3"/>
  <rect x="492" y="109" width="36" height="8" rx="2.5" fill="#111111"/>
  <circle cx="540" cy="127" r="4.5" fill="#1B6EF3"/>

  <text x="558" y="104" font-family="Inter,Arial,sans-serif" font-size="36" font-weight="900" fill="#111111" letter-spacing="-1.5">Emme</text>
  <text x="702" y="104" font-family="Inter,Arial,sans-serif" font-size="36" font-weight="900" fill="#1B6EF3" letter-spacing="-1.5">2000</text>
  <line x1="558" y1="112" x2="850" y2="112" stroke="#DDDDDD" stroke-width="1"/>
  <text x="559" y="126" font-family="monospace" font-size="9" fill="#888888" letter-spacing="2.5">SPECIALISTI IN SISTEMI DI SICUREZZA</text>
  <text x="559" y="140" font-family="monospace" font-size="8.5" fill="#1B6EF3" letter-spacing="2" font-style="italic">Your Security, our Mission</text>

  <!-- ═══ VERSIONE 3: Solo icona grande ═══ -->
  <text x="40" y="188" font-family="monospace" font-size="11" fill="#6B6B6B" letter-spacing="2">ICONA / FAVICON / APP ICON</text>

  <!-- 128x128 -->
  <rect x="40" y="200" width="128" height="128" rx="24" fill="#1B6EF3"/>
  <rect x="65" y="228" width="72" height="16" rx="4" fill="#FFFFFF"/>
  <rect x="65" y="252" width="50" height="14" rx="4" fill="rgba(255,255,255,0.5)"/>
  <rect x="65" y="274" width="72" height="16" rx="4" fill="#FFFFFF"/>
  <circle cx="145" cy="305" r="8" fill="rgba(255,255,255,0.65)"/>
  <text x="88" y="360" font-family="monospace" font-size="10" fill="#6B6B6B" text-anchor="middle">128×128</text>

  <!-- 64x64 -->
  <rect x="200" y="220" width="64" height="64" rx="14" fill="#1B6EF3"/>
  <rect x="214" y="232" width="32" height="7" rx="2" fill="#FFFFFF"/>
  <rect x="214" y="243" width="22" height="6" rx="2" fill="rgba(255,255,255,0.5)"/>
  <rect x="214" y="253" width="32" height="7" rx="2" fill="#FFFFFF"/>
  <circle cx="249" cy="268" r="4" fill="rgba(255,255,255,0.65)"/>
  <text x="232" y="300" font-family="monospace" font-size="10" fill="#6B6B6B" text-anchor="middle">64×64</text>

  <!-- 32x32 -->
  <rect x="290" y="228" width="48" height="48" rx="10" fill="#1B6EF3"/>
  <rect x="301" y="237" width="24" height="5.5" rx="2" fill="#FFFFFF"/>
  <rect x="301" y="246" width="17" height="5" rx="2" fill="rgba(255,255,255,0.5)"/>
  <rect x="301" y="255" width="24" height="5.5" rx="2" fill="#FFFFFF"/>
  <circle cx="328" cy="268" r="3" fill="rgba(255,255,255,0.65)"/>
  <text x="314" y="294" font-family="monospace" font-size="10" fill="#6B6B6B" text-anchor="middle">32×32</text>

  <!-- ═══ VERSIONE 4: Wordmark compatto ═══ -->
  <text x="380" y="188" font-family="monospace" font-size="11" fill="#6B6B6B" letter-spacing="2">WORDMARK COMPATTO</text>

  <rect x="380" y="200" width="480" height="80" rx="10" fill="#111111"/>
  <rect x="404" y="218" width="48" height="48" rx="9" fill="none" stroke="#1B6EF3" stroke-width="1.5"/>
  <rect x="404" y="218" width="48" height="48" rx="9" fill="#1B6EF3" fill-opacity="0.07"/>
  <rect x="414" y="229" width="26" height="6" rx="2" fill="#FFFFFF"/>
  <rect x="414" y="240" width="18" height="5.5" rx="2" fill="#1B6EF3"/>
  <rect x="414" y="250" width="26" height="6" rx="2" fill="#FFFFFF"/>
  <circle cx="445" cy="261" r="3.5" fill="#1B6EF3"/>
  <text x="464" y="246" font-family="Inter,Arial,sans-serif" font-size="28" font-weight="900" fill="#FFFFFF" letter-spacing="-1">Emme</text>
  <text x="580" y="246" font-family="Inter,Arial,sans-serif" font-size="28" font-weight="900" fill="#1B6EF3" letter-spacing="-1">2000</text>
  <text x="464" y="262" font-family="monospace" font-size="8" fill="#555555" letter-spacing="2.5">YOUR SECURITY, OUR MISSION</text>

  <!-- ═══ VERSIONE 5: Solo testo ═══ -->
  <text x="40" y="395" font-family="monospace" font-size="11" fill="#6B6B6B" letter-spacing="2">SOLO TESTO (per intestazioni documenti)</text>

  <rect x="40" y="408" width="860" height="70" rx="8" fill="#111111"/>
  <text x="72" y="454" font-family="Inter,Arial,sans-serif" font-size="32" font-weight="900" fill="#FFFFFF" letter-spacing="-1">Emme</text>
  <text x="182" y="454" font-family="Inter,Arial,sans-serif" font-size="32" font-weight="900" fill="#1B6EF3" letter-spacing="-1">2000</text>
  <text x="258" y="441" font-family="monospace" font-size="9" fill="#555555" letter-spacing="2">SPECIALISTI IN SISTEMI DI SICUREZZA</text>
  <text x="258" y="457" font-family="monospace" font-size="8.5" fill="#1B6EF3" letter-spacing="1.5" font-style="italic">Your Security, our Mission · Bergamo e Brescia</text>

  <!-- ═══ Note ═══ -->
  <text x="40" y="510" font-family="monospace" font-size="10" fill="#444" letter-spacing="1">Colori: Blu primario #1B6EF3 · Sfondo scuro #0A0A0A · Bianco #FFFFFF · Font: Inter 900</text>
  <text x="40" y="528" font-family="monospace" font-size="10" fill="#444" letter-spacing="1">Instagram: @emme2000_impiantielettrici · Facebook: Emme 2000 Impianti Elettrici</text>
  <text x="40" y="546" font-family="monospace" font-size="10" fill="#444" letter-spacing="1">www.emme2000impiantielettrici.it · info@emme2000impiantielettrici.it · Tel. 352 033 4436</text>
</svg>
